<svg width="6" height="9" viewBox="0 0 6 9" fill="none" xmlns="http://www.w3.org/2000/svg">
<path fill-rule="evenodd" clip-rule="evenodd" d="M3.00002 0C2.63485 0 2.33879 0.296044 2.33879 0.661234V6.72266L1.80738 6.19765C1.54761 5.94094 1.12892 5.94347 0.872236 6.20324C0.615598 6.46301 0.618117 6.88164 0.877888 7.13834L2.55643 8.79689C2.68022 8.91922 2.8472 8.98772 3.02118 8.98772H3.02512C3.2005 8.98668 3.36828 8.91602 3.49153 8.7913L5.12775 7.13532C5.38439 6.87555 5.38193 6.45687 5.12216 6.20017C4.86239 5.94354 4.4437 5.94599 4.18702 6.20576L3.66126 6.73791V0.661234C3.66126 0.296044 3.3652 0 3.00002 0Z" fill="#787686"/>
</svg>
