<svg width="17" height="17" viewBox="0 0 17 17" fill="none" xmlns="http://www.w3.org/2000/svg">
<path fill-rule="evenodd" clip-rule="evenodd" d="M17 7.08345C17 7.03174 16.9943 6.98019 16.983 6.92974L16.0622 2.77324C15.7096 1.14729 14.2664 -0.00954533 12.6027 0.000119471H4.39733C2.73467 -0.00820198 1.29306 1.14833 0.940668 2.77324L0.0170019 6.92974C0.00567434 6.98019 -2.71257e-05 7.03174 1.93669e-06 7.08345V7.79179C-0.000569552 8.48141 0.251405 9.14738 0.708335 9.66391V13.4585C0.710677 15.4135 2.29496 16.9978 4.25 17.0001H12.75C14.705 16.9978 16.2893 15.4135 16.2917 13.4585V9.66391C16.7486 9.14738 17.0006 8.48141 17 7.79179V7.08345ZM1.41667 7.16066L2.32333 3.08066C2.53507 2.10589 3.39985 1.41212 4.39734 1.41679H4.95833V3.54179C4.95833 3.93299 5.27547 4.25012 5.66667 4.25012C6.05787 4.25012 6.375 3.93299 6.375 3.54179V1.41679H10.625V3.54179C10.625 3.93299 10.9421 4.25012 11.3333 4.25012C11.7245 4.25012 12.0417 3.93299 12.0417 3.54179V1.41679H12.6027C13.6002 1.41212 14.4649 2.10589 14.6767 3.08066L15.5833 7.16066V7.79179C15.5833 8.57419 14.9491 9.20845 14.1667 9.20845H13.4583C12.6759 9.20845 12.0417 8.57419 12.0417 7.79179C12.0417 7.40058 11.7245 7.08345 11.3333 7.08345C10.9421 7.08345 10.625 7.40058 10.625 7.79179C10.625 8.57419 9.99074 9.20845 9.20833 9.20845H7.79167C7.00926 9.20845 6.375 8.57419 6.375 7.79179C6.375 7.40058 6.05787 7.08345 5.66667 7.08345C5.27547 7.08345 4.95833 7.40058 4.95833 7.79179C4.95833 8.57419 4.32407 9.20845 3.54167 9.20845H2.83333C2.05093 9.20845 1.41667 8.57419 1.41667 7.79179V7.16066ZM4.25 15.5835H12.75C13.9236 15.5835 14.875 14.6321 14.875 13.4585V10.5352C14.6437 10.5951 14.4056 10.6253 14.1667 10.6251H13.4583C12.6447 10.6255 11.8703 10.2753 11.3333 9.66391C10.7964 10.2753 10.022 10.6255 9.20833 10.6251H7.79167C6.97799 10.6255 6.20361 10.2753 5.66667 9.66391C5.12972 10.2753 4.35534 10.6255 3.54167 10.6251H2.83333C2.59436 10.6253 2.35634 10.5951 2.125 10.5352V13.4585C2.125 14.6321 3.0764 15.5835 4.25 15.5835Z" fill="white"/>
</svg>
