<svg width="17" height="17" viewBox="0 0 17 17" fill="none" xmlns="http://www.w3.org/2000/svg">
<path fill-rule="evenodd" clip-rule="evenodd" d="M16.9043 2.09598L16.8511 2.24543C15.7873 5.19762 14.7666 8.00461 12.7494 10.4978V10.6253C12.7469 12.819 11.8214 14.9103 10.1995 16.3873C9.77488 16.7791 9.21897 16.9976 8.64124 17C7.38942 16.9961 6.37624 15.981 6.37469 14.7292V13.9139C5.85203 13.7454 5.37626 13.4564 4.98571 13.0704L4.95809 13.0434L3.33396 14.6676C3.05604 14.936 2.61427 14.9322 2.34106 14.6589C2.06784 14.3857 2.064 13.944 2.33243 13.666L3.95656 12.0419L3.92893 12.015C3.5426 11.624 3.253 11.1481 3.08322 10.6253H2.38201C1.06722 10.6241 0.00156191 9.5588 0 8.24401C0.00125289 7.62731 0.239053 7.03458 0.664384 6.58801C2.16129 5.05067 4.22947 4.20411 6.37469 4.25063H6.50218C8.99539 2.2341 11.8003 1.21344 14.751 0.150287L14.904 0.0957477C15.4741 -0.11384 16.114 0.0269451 16.5436 0.456447C16.9731 0.885949 17.1138 1.52588 16.9043 2.09598ZM12.7494 4.95893C12.7494 5.35011 12.4323 5.66722 12.0411 5.66722C11.6499 5.66722 11.3328 5.35011 11.3328 4.95893C11.3328 4.56774 11.6499 4.25063 12.0411 4.25063C12.4323 4.25063 12.7494 4.56774 12.7494 4.95893ZM9.91618 6.37552C9.525 6.37552 9.20788 6.69264 9.20788 7.08382C9.20788 7.475 9.525 7.79212 9.91618 7.79212C10.3074 7.79212 10.6245 7.475 10.6245 7.08382C10.6245 6.69264 10.3074 6.37552 9.91618 6.37552ZM7.08298 9.20872C7.08298 8.81753 7.4001 8.50042 7.79128 8.50042C8.18247 8.50042 8.49958 8.81753 8.49958 9.20872C8.49958 9.5999 8.18247 9.91702 7.79128 9.91702C7.4001 9.91702 7.08298 9.5999 7.08298 9.20872ZM2.90402 9.20872H2.38201C1.84926 9.20833 1.41738 8.77676 1.4166 8.24401C1.41928 7.98752 1.52076 7.74195 1.69992 7.55838C2.54205 6.68489 3.62828 6.08598 4.81643 5.84005C4.3582 6.35934 3.93038 6.9047 3.53512 7.47339C3.175 7.98585 2.95723 8.58464 2.90402 9.20872ZM11.1203 12.2204C10.6122 12.6651 10.0797 13.0811 9.5252 13.4663C9.01232 13.8229 8.41398 14.037 7.79128 14.0868V14.7292C7.79206 15.2009 8.17448 15.583 8.6462 15.5834C8.8708 15.5801 9.08604 15.4929 9.24967 15.339C10.1628 14.5032 10.8128 13.4195 11.1203 12.2204ZM15.3842 1.42806C15.4375 1.40535 15.4993 1.41901 15.5379 1.46206C15.5817 1.5012 15.5955 1.56405 15.5719 1.61788L15.5181 1.76733C14.2814 5.19975 13.2119 8.16539 10.662 10.7153C10.0591 11.3006 9.40718 11.8333 8.71349 12.3075C7.86814 12.9022 6.71752 12.8023 5.98725 12.071L4.93047 11.0156C4.19852 10.2849 4.09895 9.13339 4.6946 8.28793C5.16893 7.59385 5.70162 6.9415 6.28686 6.33798C8.83815 3.7874 11.801 2.71929 15.232 1.4833L15.3842 1.42806Z" fill="#787686"/>
</svg>
