<svg width="17" height="16" viewBox="0 0 17 16" fill="none" xmlns="http://www.w3.org/2000/svg">
<path fill-rule="evenodd" clip-rule="evenodd" d="M13.4583 0H3.54167C1.58663 0.00234183 0.00234183 1.58663 0 3.54167V9.20833C0.00234183 11.1634 1.58663 12.7477 3.54167 12.75H7.79167V14.1667H4.95833C4.56713 14.1667 4.25 14.4838 4.25 14.875C4.25 15.2662 4.56713 15.5833 4.95833 15.5833H12.0417C12.4329 15.5833 12.75 15.2662 12.75 14.875C12.75 14.4838 12.4329 14.1667 12.0417 14.1667H9.20833V12.75H13.4583C15.4134 12.7477 16.9977 11.1634 17 9.20833V3.54167C16.9977 1.58663 15.4134 0.00234183 13.4583 0ZM3.54167 1.41667H13.4583C14.6319 1.41667 15.5833 2.36806 15.5833 3.54167V8.5H1.41667V3.54167C1.41667 2.36806 2.36806 1.41667 3.54167 1.41667ZM3.54167 11.3333H13.4583C14.3556 11.3296 15.1539 10.7627 15.453 9.91667H1.547C1.8461 10.7627 2.64436 11.3296 3.54167 11.3333Z" fill="#787686"/>
</svg>
