<svg width="17" height="17" viewBox="0 0 17 17" fill="none" xmlns="http://www.w3.org/2000/svg">
<path fill-rule="evenodd" clip-rule="evenodd" d="M12.3958 6.375C10.6354 6.375 9.20833 4.94791 9.20833 3.1875C9.20833 1.42709 10.6354 0 12.3958 0C14.1562 0 15.5833 1.42709 15.5833 3.1875C15.5814 4.9471 14.1554 6.37305 12.3958 6.375ZM2.125 6.02083C2.125 7.78124 3.55209 9.20833 5.3125 9.20833C7.0721 9.20638 8.49805 7.78043 8.5 6.02083C8.5 4.26043 7.07291 2.83333 5.3125 2.83333C3.55209 2.83333 2.125 4.26043 2.125 6.02083ZM3.54167 6.02083C3.54167 5.04283 4.3345 4.25 5.3125 4.25C5.78215 4.25 6.23257 4.43657 6.56467 4.76867C6.89676 5.10076 7.08333 5.55118 7.08333 6.02083C7.08333 6.99884 6.2905 7.79167 5.3125 7.79167C4.3345 7.79167 3.54167 6.99884 3.54167 6.02083ZM10.625 16.2917V15.9375C10.625 13.0035 8.24651 10.625 5.3125 10.625C2.37849 10.625 0 13.0035 0 15.9375V16.2917C0 16.6829 0.317132 17 0.708333 17C1.09953 17 1.41667 16.6829 1.41667 16.2917V15.9375C1.41667 13.7859 3.16089 12.0417 5.3125 12.0417C7.46411 12.0417 9.20833 13.7859 9.20833 15.9375V16.2917C9.20833 16.6829 9.52547 17 9.91667 17C10.3079 17 10.625 16.6829 10.625 16.2917ZM14.0657 8.22373C15.8507 9.02192 16.9999 10.7946 17 12.75C17 13.1412 16.6829 13.4583 16.2917 13.4583C15.9005 13.4583 15.5833 13.1412 15.5833 12.75C15.5833 11.3534 14.7626 10.0872 13.4877 9.51702C12.2128 8.94682 10.7218 9.17907 9.68079 10.11C9.49267 10.2816 9.22692 10.3391 8.98473 10.2604C8.74255 10.1818 8.56119 9.97926 8.50973 9.72988C8.45826 9.48051 8.5446 9.2227 8.73588 9.05462C10.1932 7.75096 12.2807 7.42554 14.0657 8.22373ZM10.625 3.1875C10.625 2.2095 11.4178 1.41667 12.3958 1.41667C12.8655 1.41667 13.3159 1.60324 13.648 1.93533C13.9801 2.26743 14.1667 2.71785 14.1667 3.1875C14.1667 4.1655 13.3738 4.95833 12.3958 4.95833C11.4178 4.95833 10.625 4.1655 10.625 3.1875Z" fill="#787686"/>
</svg>
