<svg width="17" height="14" viewBox="0 0 17 14" fill="none" xmlns="http://www.w3.org/2000/svg">
<path fill-rule="evenodd" clip-rule="evenodd" d="M14.5817 1.83145C14.9863 1.42498 15.5965 1.30351 16.1259 1.52403C16.6552 1.74347 17.0001 2.26009 17 2.83303V10.3314C16.9977 12.2865 15.4134 13.8708 13.4583 13.8731H3.54167C1.58663 13.8708 0.00234183 12.2865 0 10.3314V2.83303C0.000122326 2.26014 0.345281 1.74371 0.874573 1.52449C1.40386 1.30527 2.01309 1.42641 2.41825 1.83145L4.25 3.6632L7.49842 0.414781C8.05163 -0.13826 8.94837 -0.13826 9.50158 0.414781L12.75 3.6632L14.5817 1.83145ZM13.4583 12.4564C14.6319 12.4564 15.5833 11.5051 15.5833 10.3314V2.83303L13.2508 5.16557C12.9742 5.44209 12.5258 5.44209 12.2492 5.16557L8.5 1.41636L4.75079 5.16557C4.47419 5.44209 4.02581 5.44209 3.74921 5.16557L1.41667 2.83303V10.3314C1.41667 11.5051 2.36806 12.4564 3.54167 12.4564H13.4583Z" fill="#787686"/>
</svg>
