<svg width="17" height="18" viewBox="0 0 17 18" fill="none" xmlns="http://www.w3.org/2000/svg">
<path fill-rule="evenodd" clip-rule="evenodd" d="M10.144 4.2542H13.4583C15.4134 4.25654 16.9977 5.84083 17 7.79587V14.8792C17 16.0528 16.0486 17.0042 14.875 17.0042H2.125C0.951395 17.0042 0 16.0528 0 14.8792V7.79587C0.00234183 5.84083 1.58663 4.25654 3.54167 4.2542H6.85667C7.13869 4.05286 7.45577 3.90585 7.79167 3.8207V1.16303C7.79047 0.766011 7.99249 0.395978 8.3271 0.182286C8.66171 -0.0314049 9.08239 -0.0590432 9.44208 0.109033L11.7087 1.17153C11.9172 1.30069 12.0439 1.52844 12.0439 1.77362C12.0439 2.0188 11.9172 2.24654 11.7087 2.3757L9.20833 3.54587V3.8207C9.5444 3.90597 9.86169 4.05297 10.144 4.2542ZM13.9237 7.08753H15.453C15.1539 6.24153 14.3556 5.67459 13.4583 5.67087H11.6266L12.4213 6.46491C12.8205 6.86234 13.3604 7.0861 13.9237 7.08753ZM3.54167 5.67087H5.37342L4.57867 6.46491C4.1795 6.86234 3.63957 7.0861 3.07629 7.08753H1.547C1.8461 6.24153 2.64436 5.67459 3.54167 5.67087ZM7.79167 13.4625V15.5875H9.20833V13.4625C9.20833 13.0713 8.8912 12.7542 8.5 12.7542C8.1088 12.7542 7.79167 13.0713 7.79167 13.4625ZM14.875 15.5875H10.625V13.4625C10.625 12.2889 9.6736 11.3375 8.5 11.3375C7.3264 11.3375 6.375 12.2889 6.375 13.4625V15.5875H2.125C1.7338 15.5875 1.41667 15.2704 1.41667 14.8792V8.5042H3.07629C4.01602 8.50651 4.91764 8.13285 5.58025 7.46649L7.49842 5.54903C8.05162 4.99599 8.94838 4.99599 9.50158 5.54903L11.4198 7.46649C12.0824 8.13285 12.984 8.50651 13.9237 8.5042H15.5833V14.8792C15.5833 15.2704 15.2662 15.5875 14.875 15.5875ZM4.25 11.3375C4.6412 11.3375 4.95833 11.0204 4.95833 10.6292C4.95833 10.238 4.6412 9.92087 4.25 9.92087H3.54167C3.15046 9.92087 2.83333 10.238 2.83333 10.6292C2.83333 11.0204 3.15046 11.3375 3.54167 11.3375H4.25ZM4.95833 13.4625C4.95833 13.8537 4.6412 14.1709 4.25 14.1709H3.54167C3.15046 14.1709 2.83333 13.8537 2.83333 13.4625C2.83333 13.0713 3.15046 12.7542 3.54167 12.7542H4.25C4.6412 12.7542 4.95833 13.0713 4.95833 13.4625ZM13.4583 11.3375C13.8495 11.3375 14.1667 11.0204 14.1667 10.6292C14.1667 10.238 13.8495 9.92087 13.4583 9.92087H12.75C12.3588 9.92087 12.0417 10.238 12.0417 10.6292C12.0417 11.0204 12.3588 11.3375 12.75 11.3375H13.4583ZM14.1667 13.4625C14.1667 13.8537 13.8495 14.1709 13.4583 14.1709H12.75C12.3588 14.1709 12.0417 13.8537 12.0417 13.4625C12.0417 13.0713 12.3588 12.7542 12.75 12.7542H13.4583C13.8495 12.7542 14.1667 13.0713 14.1667 13.4625ZM8.5 9.92087C9.2824 9.92087 9.91667 9.2866 9.91667 8.5042C9.91667 7.7218 9.2824 7.08753 8.5 7.08753C7.7176 7.08753 7.08333 7.7218 7.08333 8.5042C7.08333 9.2866 7.7176 9.92087 8.5 9.92087Z" fill="#787686"/>
</svg>
