<svg width="17" height="17" viewBox="0 0 17 17" fill="none" xmlns="http://www.w3.org/2000/svg">
<path fill-rule="evenodd" clip-rule="evenodd" d="M14.7078 4.51849C15.7005 4.50783 16.5831 5.1484 16.8806 6.0955C17.1994 7.03557 16.8646 8.07346 16.0567 8.65016L13.5346 10.4921L14.4925 13.4584C14.7973 14.4025 14.4584 15.4355 13.6535 16.0156C12.8486 16.5956 11.7615 16.5903 10.9623 16.0024L8.49544 14.1895L6.02934 16.0046C5.23385 16.6044 4.13868 16.6099 3.33723 16.018C2.52181 15.4446 2.18054 14.4032 2.49843 13.4584L3.45625 10.4921L0.937009 8.65016C0.138988 8.06671 -0.193619 7.03642 0.112603 6.09648C0.418824 5.15654 1.2945 4.5199 2.28306 4.51849H5.37827L6.31838 1.58835C6.62172 0.641999 7.50167 0 8.49544 0C9.48922 0 10.3692 0.641999 10.6725 1.58835L11.6126 4.51849H14.7078ZM12.2849 9.65191L15.2207 7.50602H15.2222C15.5254 7.28396 15.6516 6.89212 15.535 6.53481C15.4183 6.17749 15.0851 5.93565 14.7092 5.93539H11.0962C10.7884 5.93538 10.5159 5.7367 10.4217 5.44373L9.32362 2.02121C9.20797 1.66188 8.87364 1.41826 8.49615 1.41826C8.11867 1.41826 7.78433 1.66188 7.66868 2.02121L6.57059 5.44373C6.47642 5.7367 6.20389 5.93538 5.89615 5.93539H2.28306C1.90717 5.93565 1.57404 6.17749 1.45735 6.53481C1.34067 6.89212 1.46686 7.28396 1.77014 7.50602L4.70595 9.65191C4.9533 9.83235 5.05675 10.1513 4.96241 10.4425L3.84306 13.8927C3.72518 14.2529 3.85424 14.6479 4.16203 14.869C4.46982 15.0902 4.88539 15.0864 5.18912 14.8597L8.07604 12.7344C8.3256 12.5511 8.66529 12.5511 8.91485 12.7344L11.8018 14.8597C12.1056 15.0833 12.519 15.0854 12.8251 14.8649C13.1312 14.6444 13.2601 14.2517 13.1443 13.8927L12.0285 10.4425C11.9341 10.1513 12.0376 9.83235 12.2849 9.65191Z" fill="#787686"/>
</svg>
