<svg width="17" height="18" viewBox="0 0 17 18" fill="none" xmlns="http://www.w3.org/2000/svg">
<path fill-rule="evenodd" clip-rule="evenodd" d="M16.4502 4.06846L14.3171 1.18661C13.7849 0.442586 12.9267 0.000795806 12.0119 2.50038e-06H4.99146C4.08124 -0.000851856 3.22602 0.435587 2.69264 1.17315L0.52133 4.07554C-0.20479 5.09944 -0.16931 6.47939 0.608465 7.46462L6.83689 16.198C7.23906 16.7073 7.85278 17.0037 8.50168 17.0021C9.16189 17.0008 9.78416 16.6933 10.1863 16.1697L16.3651 7.53334C17.1788 6.53236 17.2138 5.10813 16.4502 4.06846ZM13.1716 2.01971L15.3096 4.90864C15.3153 4.91655 15.3189 4.92519 15.3225 4.93392L15.3225 4.93392C15.326 4.94238 15.3295 4.95092 15.3351 4.95894H11.8695L10.8579 1.41684H12.0119C12.4732 1.41827 12.9054 1.64291 13.1716 2.01971ZM6.58895 6.37578L8.50168 13.5436L10.4144 6.37578H6.58895ZM6.60737 4.95894L7.61899 1.41684H9.38437L10.396 4.95894H6.60737ZM4.99146 1.41684C4.53402 1.41746 4.10482 1.63812 3.83815 2.00979L1.66684 4.90935C1.66066 4.91747 1.65701 4.92685 1.65336 4.93623C1.65031 4.94404 1.64727 4.95186 1.64276 4.95894H5.13385L6.14548 1.41684H4.99146ZM1.73485 6.60602C1.6837 6.53377 1.6398 6.45665 1.6038 6.37578H5.12393L7.24494 14.3313L1.73485 6.60602ZM11.8816 6.37578L9.75629 14.3384L15.2416 6.67403C15.3103 6.58161 15.3681 6.48153 15.4137 6.37578H11.8816Z" fill="#21202B"/>
</svg>
