<svg width="46" height="12" viewBox="0 0 46 12" fill="none" xmlns="http://www.w3.org/2000/svg">
<path fill-rule="evenodd" clip-rule="evenodd" d="M0 3.25V6.375H4.375V2.70312L0 3.25Z" fill="#787686"/>
<path fill-rule="evenodd" clip-rule="evenodd" d="M10 2L5 2.625V6.375H10V2Z" fill="#787686"/>
<path fill-rule="evenodd" clip-rule="evenodd" d="M5 7V10.75L10 11.375V7H5Z" fill="#787686"/>
<path fill-rule="evenodd" clip-rule="evenodd" d="M0 7V10.125L4.375 10.6719V7H0Z" fill="#787686"/>
<path fill-rule="evenodd" clip-rule="evenodd" d="M25.1946 0C24.5705 0.0431709 23.841 0.442684 23.4159 0.96293C23.0281 1.43488 22.709 2.13586 22.8334 2.81708C23.5154 2.8383 24.22 2.42928 24.6283 1.90025C25.0103 1.40781 25.2993 0.711222 25.1946 0Z" fill="#787686"/>
<path fill-rule="evenodd" clip-rule="evenodd" d="M27.6612 3.9278C27.0619 3.17633 26.2198 2.74023 25.4244 2.74023C24.3744 2.74023 23.9302 3.24292 23.2007 3.24292C22.4485 3.24292 21.8771 2.7417 20.969 2.7417C20.077 2.7417 19.1273 3.28682 18.5251 4.21902C17.6785 5.53171 17.8234 7.99979 19.1953 10.102C19.6863 10.8542 20.3419 11.7 21.1995 11.7073C21.9627 11.7147 22.1778 11.2178 23.2117 11.2127C24.2456 11.2068 24.4417 11.7139 25.2034 11.7059C26.0617 11.6993 26.7532 10.762 27.2442 10.0098C27.5961 9.4705 27.7271 9.19903 28 8.59025C26.0149 7.8344 25.6966 5.01146 27.6612 3.9278Z" fill="#787686"/>
<path fill-rule="evenodd" clip-rule="evenodd" d="M37.9947 1.1706C37.5773 0.939932 37.0873 0.945265 36.6727 1.17393L41.5327 5.65727L43.1653 4.0246L37.9947 1.1706Z" fill="#787686"/>
<path fill-rule="evenodd" clip-rule="evenodd" d="M36.1867 1.63263C36.068 1.82663 36 2.04863 36 2.28396V10.3813C36 10.6093 36.062 10.8266 36.174 11.0166L41.0613 6.1293L36.1867 1.63263Z" fill="#787686"/>
<path fill-rule="evenodd" clip-rule="evenodd" d="M45.33 5.21926L43.7726 4.35992L42.0226 6.10926L44.1673 8.08728L45.3306 7.44526C45.7493 7.21326 46 6.79726 46 6.33193C45.9993 5.86659 45.7493 5.45059 45.33 5.21926Z" fill="#787686"/>
<path fill-rule="evenodd" clip-rule="evenodd" d="M41.5513 6.5813L36.6507 11.482C36.8634 11.6033 37.0967 11.6673 37.3313 11.6673C37.558 11.6673 37.786 11.61 37.9947 11.4946L43.5527 8.42728L41.5513 6.5813Z" fill="#787686"/>
</svg>
