<svg width="10" height="9" viewBox="0 0 10 9" fill="none" xmlns="http://www.w3.org/2000/svg">
<path fill-rule="evenodd" clip-rule="evenodd" d="M5 1.37444C5.46233 0.539114 6.33611 0.0148484 7.29073 0C8.84712 0.0676212 10.0567 1.37954 9.99795 2.93629C9.99795 4.8301 8.0046 6.89842 6.33279 8.30076C5.56224 8.94828 4.43776 8.94828 3.66721 8.30076C1.9954 6.89842 0.0020521 4.8301 0.0020521 2.93629C-0.0566904 1.37954 1.15288 0.0676212 2.70927 0C3.66389 0.0148484 4.53767 0.539114 5 1.37444ZM0.835043 2.93629C0.835043 4.14538 2.06246 5.86801 4.20241 7.66352C4.66331 8.05164 5.33669 8.05164 5.79759 7.66352V7.66185C7.93754 5.86801 9.16496 4.14538 9.16496 2.93629C9.22422 1.83932 8.38725 0.900052 7.29073 0.832991C6.1942 0.900052 5.35723 1.83932 5.4165 2.93629C5.4165 3.16632 5.23002 3.35279 5 3.35279C4.76998 3.35279 4.5835 3.16632 4.5835 2.93629C4.64277 1.83932 3.8058 0.900052 2.70927 0.832991C1.61275 0.900052 0.775777 1.83932 0.835043 2.93629Z" fill="white"/>
</svg>
