<svg width="76" height="26" viewBox="0 0 76 26" fill="none" xmlns="http://www.w3.org/2000/svg">
<rect width="76" height="26" rx="8" fill="#4B0ACE"/>
<path d="M17.4972 17H15.0328V9.72727H17.547C18.269 9.72727 18.8893 9.87287 19.4078 10.1641C19.9286 10.4529 20.3287 10.8684 20.608 11.4105C20.8874 11.9527 21.0271 12.6013 21.0271 13.3565C21.0271 14.1141 20.8862 14.7652 20.6045 15.3097C20.3251 15.8542 19.9215 16.272 19.3936 16.5632C18.868 16.8544 18.2359 17 17.4972 17ZM16.3502 15.8601H17.4333C17.94 15.8601 18.3625 15.7678 18.7011 15.5831C19.0396 15.3961 19.2941 15.1179 19.4646 14.7486C19.635 14.3769 19.7203 13.9129 19.7203 13.3565C19.7203 12.8002 19.635 12.3385 19.4646 11.9716C19.2941 11.6023 19.042 11.3265 18.7082 11.1442C18.3767 10.9595 17.9648 10.8672 17.4724 10.8672H16.3502V15.8601ZM24.6013 17.1065C24.0686 17.1065 23.607 16.9893 23.2164 16.755C22.8257 16.5206 22.5227 16.1927 22.3073 15.7713C22.0942 15.3499 21.9877 14.8575 21.9877 14.294C21.9877 13.7306 22.0942 13.237 22.3073 12.8132C22.5227 12.3894 22.8257 12.0604 23.2164 11.826C23.607 11.5916 24.0686 11.4744 24.6013 11.4744C25.134 11.4744 25.5956 11.5916 25.9862 11.826C26.3769 12.0604 26.6787 12.3894 26.8918 12.8132C27.1072 13.237 27.2149 13.7306 27.2149 14.294C27.2149 14.8575 27.1072 15.3499 26.8918 15.7713C26.6787 16.1927 26.3769 16.5206 25.9862 16.755C25.5956 16.9893 25.134 17.1065 24.6013 17.1065ZM24.6084 16.0767C24.8972 16.0767 25.1387 15.9974 25.3328 15.8388C25.527 15.6778 25.6714 15.4624 25.7661 15.1925C25.8631 14.9226 25.9117 14.6219 25.9117 14.2905C25.9117 13.9567 25.8631 13.6548 25.7661 13.3849C25.6714 13.1127 25.527 12.8961 25.3328 12.7351C25.1387 12.5741 24.8972 12.4936 24.6084 12.4936C24.3125 12.4936 24.0663 12.5741 23.8698 12.7351C23.6756 12.8961 23.53 13.1127 23.433 13.3849C23.3383 13.6548 23.2909 13.9567 23.2909 14.2905C23.2909 14.6219 23.3383 14.9226 23.433 15.1925C23.53 15.4624 23.6756 15.6778 23.8698 15.8388C24.0663 15.9974 24.3125 16.0767 24.6084 16.0767ZM29.2755 17L27.7343 11.5455H29.0447L30.0035 15.3807H30.0532L31.0333 11.5455H32.3295L33.3096 15.3594H33.3628L34.3074 11.5455H35.6214L34.0766 17H32.7378L31.7151 13.3139H31.6405L30.6178 17H29.2755ZM37.8044 13.804V17H36.5189V11.5455H37.7476V12.4723H37.8115C37.937 12.1669 38.137 11.9242 38.4117 11.7443C38.6887 11.5644 39.0307 11.4744 39.4379 11.4744C39.8144 11.4744 40.1423 11.5549 40.4216 11.7159C40.7033 11.8769 40.9211 12.1101 41.075 12.4155C41.2313 12.7209 41.3082 13.0914 41.3058 13.527V17H40.0203V13.7259C40.0203 13.3613 39.9256 13.076 39.7362 12.87C39.5492 12.6641 39.29 12.5611 38.9585 12.5611C38.7336 12.5611 38.5336 12.6108 38.3584 12.7102C38.1856 12.8073 38.0494 12.9482 37.95 13.1328C37.853 13.3175 37.8044 13.5412 37.8044 13.804ZM43.8982 9.72727V17H42.6127V9.72727H43.8982ZM47.5993 17.1065C47.0667 17.1065 46.605 16.9893 46.2144 16.755C45.8238 16.5206 45.5207 16.1927 45.3053 15.7713C45.0922 15.3499 44.9857 14.8575 44.9857 14.294C44.9857 13.7306 45.0922 13.237 45.3053 12.8132C45.5207 12.3894 45.8238 12.0604 46.2144 11.826C46.605 11.5916 47.0667 11.4744 47.5993 11.4744C48.132 11.4744 48.5937 11.5916 48.9843 11.826C49.3749 12.0604 49.6768 12.3894 49.8898 12.8132C50.1053 13.237 50.213 13.7306 50.213 14.294C50.213 14.8575 50.1053 15.3499 49.8898 15.7713C49.6768 16.1927 49.3749 16.5206 48.9843 16.755C48.5937 16.9893 48.132 17.1065 47.5993 17.1065ZM47.6064 16.0767C47.8953 16.0767 48.1367 15.9974 48.3309 15.8388C48.525 15.6778 48.6694 15.4624 48.7641 15.1925C48.8612 14.9226 48.9097 14.6219 48.9097 14.2905C48.9097 13.9567 48.8612 13.6548 48.7641 13.3849C48.6694 13.1127 48.525 12.8961 48.3309 12.7351C48.1367 12.5741 47.8953 12.4936 47.6064 12.4936C47.3105 12.4936 47.0643 12.5741 46.8678 12.7351C46.6737 12.8961 46.5281 13.1127 46.431 13.3849C46.3363 13.6548 46.289 13.9567 46.289 14.2905C46.289 14.6219 46.3363 14.9226 46.431 15.1925C46.5281 15.4624 46.6737 15.6778 46.8678 15.8388C47.0643 15.9974 47.3105 16.0767 47.6064 16.0767ZM52.8737 17.1101C52.528 17.1101 52.2167 17.0485 51.9397 16.9254C51.6651 16.8 51.4473 16.6153 51.2863 16.3714C51.1277 16.1276 51.0484 15.8269 51.0484 15.4695C51.0484 15.1617 51.1052 14.9072 51.2188 14.706C51.3325 14.5047 51.4875 14.3438 51.684 14.223C51.8805 14.1023 52.1019 14.0111 52.3481 13.9496C52.5967 13.8857 52.8535 13.8395 53.1187 13.8111C53.4383 13.7779 53.6975 13.7483 53.8964 13.7223C54.0953 13.6939 54.2397 13.6513 54.3296 13.5945C54.422 13.5353 54.4681 13.4441 54.4681 13.321V13.2997C54.4681 13.0322 54.3888 12.825 54.2302 12.6783C54.0716 12.5315 53.8431 12.4581 53.5448 12.4581C53.23 12.4581 52.9802 12.5268 52.7955 12.6641C52.6133 12.8014 52.4901 12.9635 52.4262 13.1506L51.2259 12.9801C51.3206 12.6487 51.4769 12.3717 51.6947 12.1491C51.9125 11.9242 52.1788 11.7562 52.4937 11.6449C52.8086 11.5312 53.1566 11.4744 53.5377 11.4744C53.8005 11.4744 54.0621 11.5052 54.3225 11.5668C54.5829 11.6283 54.8209 11.7301 55.0363 11.8722C55.2517 12.0118 55.4246 12.2024 55.5548 12.4439C55.6874 12.6854 55.7536 12.9872 55.7536 13.3494V17H54.5178V16.2507H54.4752C54.3971 16.4022 54.287 16.5443 54.145 16.6768C54.0053 16.8071 53.8289 16.9124 53.6159 16.9929C53.4052 17.071 53.1578 17.1101 52.8737 17.1101ZM53.2075 16.1655C53.4655 16.1655 53.6892 16.1146 53.8786 16.0128C54.068 15.9086 54.2136 15.7713 54.3154 15.6009C54.4196 15.4304 54.4717 15.2446 54.4717 15.0433V14.4006C54.4314 14.4337 54.3628 14.4645 54.2657 14.4929C54.171 14.5213 54.0645 14.5462 53.9461 14.5675C53.8277 14.5888 53.7106 14.6077 53.5945 14.6243C53.4785 14.6409 53.3779 14.6551 53.2927 14.6669C53.1009 14.6929 52.9293 14.7356 52.7778 14.7947C52.6263 14.8539 52.5067 14.9368 52.4191 15.0433C52.3315 15.1475 52.2877 15.2824 52.2877 15.4482C52.2877 15.6849 52.3741 15.8636 52.547 15.9844C52.7198 16.1051 52.94 16.1655 53.2075 16.1655ZM59.0704 17.0959C58.6419 17.0959 58.2584 16.9858 57.9198 16.7656C57.5813 16.5455 57.3138 16.2259 57.1173 15.8068C56.9208 15.3878 56.8225 14.8788 56.8225 14.2798C56.8225 13.6738 56.922 13.1624 57.1208 12.7457C57.3221 12.3267 57.5931 12.0107 57.934 11.7976C58.2749 11.5821 58.6549 11.4744 59.074 11.4744C59.3936 11.4744 59.6563 11.5289 59.8623 11.6378C60.0683 11.7443 60.2316 11.8733 60.3524 12.0249C60.4731 12.174 60.5666 12.3149 60.6329 12.4474H60.6862V9.72727H61.9752V17H60.711V16.1406H60.6329C60.5666 16.2732 60.4707 16.4141 60.3453 16.5632C60.2198 16.71 60.0541 16.8355 59.8481 16.9396C59.6421 17.0438 59.3829 17.0959 59.0704 17.0959ZM59.4291 16.0412C59.7013 16.0412 59.9333 15.9678 60.1251 15.821C60.3169 15.6719 60.4624 15.4647 60.5619 15.1996C60.6613 14.9344 60.711 14.6255 60.711 14.2727C60.711 13.92 60.6613 13.6134 60.5619 13.353C60.4648 13.0926 60.3204 12.8902 60.1286 12.7457C59.9392 12.6013 59.7061 12.5291 59.4291 12.5291C59.1426 12.5291 58.9035 12.6037 58.7117 12.7528C58.52 12.902 58.3756 13.108 58.2785 13.3707C58.1814 13.6335 58.1329 13.9342 58.1329 14.2727C58.1329 14.6136 58.1814 14.9179 58.2785 15.1854C58.3779 15.4505 58.5235 15.66 58.7153 15.8139C58.9094 15.9654 59.1473 16.0412 59.4291 16.0412Z" fill="white"/>
</svg>
